<svg width="176" height="19" viewBox="0 0 176 19" fill="none" xmlns="http://www.w3.org/2000/svg">
<path d="M6.65856 18.1843C5.53728 18.1843 4.53888 17.9923 3.66336 17.6083C2.78784 17.2243 2.09664 16.7021 1.58976 16.0416C1.08288 15.3658 0.79872 14.6131 0.73728 13.7837H4.63104C4.67712 14.2291 4.88448 14.5901 5.25312 14.8666C5.62176 15.143 6.07488 15.2813 6.61248 15.2813C7.104 15.2813 7.48032 15.1891 7.74144 15.0048C8.01792 14.8051 8.15616 14.5517 8.15616 14.2445C8.15616 13.8758 7.96416 13.607 7.58016 13.4381C7.19616 13.2538 6.57408 13.0541 5.71392 12.839C4.79232 12.624 4.02432 12.4013 3.40992 12.1709C2.79552 11.9251 2.2656 11.5488 1.82016 11.0419C1.37472 10.5197 1.152 9.8208 1.152 8.94528C1.152 8.208 1.35168 7.53984 1.75104 6.9408C2.16576 6.3264 2.7648 5.84256 3.54816 5.48928C4.34688 5.136 5.29152 4.95936 6.38208 4.95936C7.99488 4.95936 9.26208 5.35872 10.1837 6.15744C11.1206 6.95616 11.6582 8.016 11.7965 9.33696H8.15616C8.09472 8.89152 7.89504 8.53824 7.55712 8.27712C7.23456 8.016 6.80448 7.88544 6.26688 7.88544C5.80608 7.88544 5.4528 7.9776 5.20704 8.16192C4.96128 8.33088 4.8384 8.56896 4.8384 8.87616C4.8384 9.2448 5.0304 9.52128 5.4144 9.7056C5.81376 9.88992 6.42816 10.0742 7.2576 10.2586C8.20992 10.5043 8.9856 10.7501 9.58464 10.9958C10.1837 11.2262 10.7059 11.6102 11.1514 12.1478C11.6122 12.6701 11.8502 13.3766 11.8656 14.2675C11.8656 15.0202 11.6506 15.696 11.2205 16.295C10.8058 16.8787 10.199 17.3395 9.40032 17.6774C8.61696 18.0154 7.70304 18.1843 6.65856 18.1843ZM13.4926 11.5488C13.4926 10.2278 13.7384 9.06816 14.2299 8.06976C14.7368 7.07136 15.4203 6.30336 16.2805 5.76576C17.1406 5.22816 18.1006 4.95936 19.1605 4.95936C20.0667 4.95936 20.8577 5.14368 21.5336 5.51232C22.2248 5.88096 22.7547 6.3648 23.1233 6.96384V5.14368H27.0632V18H23.1233V16.1798C22.7393 16.7789 22.2017 17.2627 21.5105 17.6314C20.8347 18 20.0437 18.1843 19.1374 18.1843C18.0929 18.1843 17.1406 17.9155 16.2805 17.3779C15.4203 16.825 14.7368 16.0493 14.2299 15.0509C13.7384 14.0371 13.4926 12.8698 13.4926 11.5488ZM23.1233 11.5718C23.1233 10.5888 22.8469 9.81312 22.2939 9.2448C21.7563 8.67648 21.0958 8.39232 20.3125 8.39232C19.5291 8.39232 18.8609 8.67648 18.308 9.2448C17.7704 9.79776 17.5016 10.5658 17.5016 11.5488C17.5016 12.5318 17.7704 13.3152 18.308 13.8989C18.8609 14.4672 19.5291 14.7514 20.3125 14.7514C21.0958 14.7514 21.7563 14.4672 22.2939 13.8989C22.8469 13.3306 23.1233 12.5549 23.1233 11.5718ZM35.1436 18.1843C34.0223 18.1843 33.0239 17.9923 32.1484 17.6083C31.2728 17.2243 30.5816 16.7021 30.0748 16.0416C29.5679 15.3658 29.2837 14.6131 29.2223 13.7837H33.116C33.1621 14.2291 33.3695 14.5901 33.7381 14.8666C34.1068 15.143 34.5599 15.2813 35.0975 15.2813C35.589 15.2813 35.9653 15.1891 36.2264 15.0048C36.5029 14.8051 36.6412 14.5517 36.6412 14.2445C36.6412 13.8758 36.4492 13.607 36.0652 13.4381C35.6812 13.2538 35.0591 13.0541 34.1989 12.839C33.2773 12.624 32.5093 12.4013 31.8949 12.1709C31.2805 11.9251 30.7506 11.5488 30.3052 11.0419C29.8597 10.5197 29.637 9.8208 29.637 8.94528C29.637 8.208 29.8367 7.53984 30.236 6.9408C30.6508 6.3264 31.2498 5.84256 32.0332 5.48928C32.8319 5.136 33.7765 4.95936 34.8671 4.95936C36.4799 4.95936 37.7471 5.35872 38.6687 6.15744C39.6056 6.95616 40.1432 8.016 40.2815 9.33696H36.6412C36.5797 8.89152 36.38 8.53824 36.0421 8.27712C35.7196 8.016 35.2895 7.88544 34.7519 7.88544C34.2911 7.88544 33.9378 7.9776 33.692 8.16192C33.4463 8.33088 33.3234 8.56896 33.3234 8.87616C33.3234 9.2448 33.5154 9.52128 33.8994 9.7056C34.2988 9.88992 34.9132 10.0742 35.7426 10.2586C36.6949 10.5043 37.4706 10.7501 38.0696 10.9958C38.6687 11.2262 39.1909 11.6102 39.6364 12.1478C40.0972 12.6701 40.3352 13.3766 40.3506 14.2675C40.3506 15.0202 40.1356 15.696 39.7055 16.295C39.2908 16.8787 38.684 17.3395 37.8853 17.6774C37.102 18.0154 36.188 18.1843 35.1436 18.1843ZM49.9264 14.6592V18H47.9219C46.4935 18 45.3799 17.6544 44.5811 16.9632C43.7824 16.2566 43.3831 15.1123 43.3831 13.5302V8.41536H41.8163V5.14368H43.3831V2.01024H47.3229V5.14368H49.9034V8.41536H47.3229V13.5763C47.3229 13.9603 47.4151 14.2368 47.5994 14.4058C47.7837 14.5747 48.0909 14.6592 48.521 14.6592H49.9264ZM57.9731 18.1843C56.7136 18.1843 55.577 17.9155 54.5632 17.3779C53.5648 16.8403 52.7738 16.0723 52.1901 15.0739C51.6218 14.0755 51.3376 12.9082 51.3376 11.5718C51.3376 10.2509 51.6295 9.0912 52.2131 8.0928C52.7968 7.07904 53.5955 6.30336 54.6093 5.76576C55.6231 5.22816 56.7597 4.95936 58.0192 4.95936C59.2787 4.95936 60.4154 5.22816 61.4291 5.76576C62.4429 6.30336 63.2416 7.07904 63.8253 8.0928C64.409 9.0912 64.7008 10.2509 64.7008 11.5718C64.7008 12.8928 64.4013 14.0602 63.8023 15.0739C63.2186 16.0723 62.4122 16.8403 61.3831 17.3779C60.3693 17.9155 59.2327 18.1843 57.9731 18.1843ZM57.9731 14.7744C58.7258 14.7744 59.3632 14.4979 59.8855 13.945C60.4231 13.392 60.6919 12.601 60.6919 11.5718C60.6919 10.5427 60.4307 9.75168 59.9085 9.19872C59.4016 8.64576 58.7719 8.36928 58.0192 8.36928C57.2512 8.36928 56.6138 8.64576 56.1069 9.19872C55.6 9.73632 55.3466 10.5274 55.3466 11.5718C55.3466 12.601 55.5923 13.392 56.0839 13.945C56.5907 14.4979 57.2205 14.7744 57.9731 14.7744ZM120.902 18.1843C120.21 18.1843 119.642 17.9846 119.197 17.5853C118.767 17.1706 118.552 16.6637 118.552 16.0646C118.552 15.4502 118.767 14.9357 119.197 14.521C119.642 14.1062 120.21 13.8989 120.902 13.8989C121.578 13.8989 122.13 14.1062 122.561 14.521C123.006 14.9357 123.229 15.4502 123.229 16.0646C123.229 16.6637 123.006 17.1706 122.561 17.5853C122.13 17.9846 121.578 18.1843 120.902 18.1843ZM124.778 11.5718C124.778 10.2355 125.046 9.06816 125.584 8.06976C126.137 7.07136 126.897 6.30336 127.865 5.76576C128.848 5.22816 129.969 4.95936 131.229 4.95936C132.842 4.95936 134.186 5.38176 135.261 6.22656C136.351 7.07136 137.066 8.26176 137.404 9.79776H133.21C132.857 8.81472 132.173 8.3232 131.16 8.3232C130.438 8.3232 129.862 8.60736 129.432 9.17568C129.002 9.72864 128.787 10.5274 128.787 11.5718C128.787 12.6163 129.002 13.4227 129.432 13.991C129.862 14.544 130.438 14.8205 131.16 14.8205C132.173 14.8205 132.857 14.329 133.21 13.3459H137.404C137.066 14.8512 136.351 16.0339 135.261 16.8941C134.17 17.7542 132.826 18.1843 131.229 18.1843C129.969 18.1843 128.848 17.9155 127.865 17.3779C126.897 16.8403 126.137 16.0723 125.584 15.0739C125.046 14.0755 124.778 12.9082 124.778 11.5718ZM145.363 18.1843C144.104 18.1843 142.967 17.9155 141.953 17.3779C140.955 16.8403 140.164 16.0723 139.58 15.0739C139.012 14.0755 138.728 12.9082 138.728 11.5718C138.728 10.2509 139.019 9.0912 139.603 8.0928C140.187 7.07904 140.986 6.30336 141.999 5.76576C143.013 5.22816 144.15 4.95936 145.409 4.95936C146.669 4.95936 147.805 5.22816 148.819 5.76576C149.833 6.30336 150.632 7.07904 151.215 8.0928C151.799 9.0912 152.091 10.2509 152.091 11.5718C152.091 12.8928 151.791 14.0602 151.192 15.0739C150.609 16.0723 149.802 16.8403 148.773 17.3779C147.759 17.9155 146.623 18.1843 145.363 18.1843ZM145.363 14.7744C146.116 14.7744 146.753 14.4979 147.275 13.945C147.813 13.392 148.082 12.601 148.082 11.5718C148.082 10.5427 147.821 9.75168 147.299 9.19872C146.792 8.64576 146.162 8.36928 145.409 8.36928C144.641 8.36928 144.004 8.64576 143.497 9.19872C142.99 9.73632 142.737 10.5274 142.737 11.5718C142.737 12.601 142.982 13.392 143.474 13.945C143.981 14.4979 144.611 14.7744 145.363 14.7744ZM170.585 5.00544C172.183 5.00544 173.45 5.48928 174.387 6.45696C175.339 7.42464 175.816 8.76864 175.816 10.489V18H171.899V11.0189C171.899 10.1894 171.676 9.552 171.231 9.10656C170.801 8.64576 170.201 8.41536 169.433 8.41536C168.665 8.41536 168.059 8.64576 167.613 9.10656C167.183 9.552 166.968 10.1894 166.968 11.0189V18H163.051V11.0189C163.051 10.1894 162.829 9.552 162.383 9.10656C161.953 8.64576 161.354 8.41536 160.586 8.41536C159.818 8.41536 159.211 8.64576 158.766 9.10656C158.336 9.552 158.121 10.1894 158.121 11.0189V18H154.181V5.14368H158.121V6.75648C158.52 6.21888 159.042 5.79648 159.688 5.48928C160.333 5.16672 161.062 5.00544 161.876 5.00544C162.844 5.00544 163.704 5.2128 164.457 5.62752C165.225 6.04224 165.824 6.6336 166.254 7.4016C166.699 6.69504 167.306 6.11904 168.074 5.6736C168.842 5.22816 169.679 5.00544 170.585 5.00544Z" fill="#613E98"/>
<path d="M66.0076 11.5488C66.0076 10.2278 66.2534 9.06816 66.7449 8.06976C67.2518 7.07136 67.9353 6.30336 68.7955 5.76576C69.6556 5.22816 70.6156 4.95936 71.6755 4.95936C72.5203 4.95936 73.2883 5.136 73.9795 5.48928C74.686 5.84256 75.239 6.31872 75.6383 6.91776V0.950399H79.5782V18H75.6383V16.1568C75.2697 16.7712 74.7398 17.2627 74.0486 17.6314C73.3727 18 72.5817 18.1843 71.6755 18.1843C70.6156 18.1843 69.6556 17.9155 68.7955 17.3779C67.9353 16.825 67.2518 16.0493 66.7449 15.0509C66.2534 14.0371 66.0076 12.8698 66.0076 11.5488ZM75.6383 11.5718C75.6383 10.5888 75.3619 9.81312 74.8089 9.2448C74.2713 8.67648 73.6108 8.39232 72.8275 8.39232C72.0441 8.39232 71.3759 8.67648 70.823 9.2448C70.2854 9.79776 70.0166 10.5658 70.0166 11.5488C70.0166 12.5318 70.2854 13.3152 70.823 13.8989C71.3759 14.4672 72.0441 14.7514 72.8275 14.7514C73.6108 14.7514 74.2713 14.4672 74.8089 13.8989C75.3619 13.3306 75.6383 12.5549 75.6383 11.5718ZM94.5475 11.3645C94.5475 11.7331 94.5245 12.1171 94.4784 12.5165H85.5619C85.6234 13.3152 85.8768 13.9296 86.3222 14.3597C86.783 14.7744 87.3437 14.9818 88.0042 14.9818C88.9872 14.9818 89.6707 14.567 90.0547 13.7376H94.248C94.033 14.5824 93.6413 15.3427 93.073 16.0186C92.52 16.6944 91.8211 17.2243 90.9763 17.6083C90.1315 17.9923 89.1869 18.1843 88.1424 18.1843C86.8829 18.1843 85.7616 17.9155 84.7786 17.3779C83.7955 16.8403 83.0275 16.0723 82.4746 15.0739C81.9216 14.0755 81.6451 12.9082 81.6451 11.5718C81.6451 10.2355 81.9139 9.06816 82.4515 8.06976C83.0045 7.07136 83.7725 6.30336 84.7555 5.76576C85.7386 5.22816 86.8675 4.95936 88.1424 4.95936C89.3866 4.95936 90.4925 5.22048 91.4602 5.74272C92.4278 6.26496 93.1805 7.00992 93.7181 7.9776C94.271 8.94528 94.5475 10.0742 94.5475 11.3645ZM90.5155 10.3277C90.5155 9.65184 90.2851 9.11424 89.8243 8.71488C89.3635 8.31552 88.7875 8.11584 88.0963 8.11584C87.4358 8.11584 86.8752 8.30784 86.4144 8.69184C85.969 9.07584 85.6925 9.62112 85.585 10.3277H90.5155ZM95.8426 11.5488C95.8426 10.2278 96.0884 9.06816 96.5799 8.06976C97.0868 7.07136 97.7703 6.30336 98.6305 5.76576C99.4906 5.22816 100.451 4.95936 101.51 4.95936C102.417 4.95936 103.208 5.14368 103.884 5.51232C104.575 5.88096 105.105 6.3648 105.473 6.96384V5.14368H109.413V18H105.473V16.1798C105.089 16.7789 104.552 17.2627 103.861 17.6314C103.185 18 102.394 18.1843 101.487 18.1843C100.443 18.1843 99.4906 17.9155 98.6305 17.3779C97.7703 16.825 97.0868 16.0493 96.5799 15.0509C96.0884 14.0371 95.8426 12.8698 95.8426 11.5488ZM105.473 11.5718C105.473 10.5888 105.197 9.81312 104.644 9.2448C104.106 8.67648 103.446 8.39232 102.662 8.39232C101.879 8.39232 101.211 8.67648 100.658 9.2448C100.12 9.79776 99.8516 10.5658 99.8516 11.5488C99.8516 12.5318 100.12 13.3152 100.658 13.8989C101.211 14.4672 101.879 14.7514 102.662 14.7514C103.446 14.7514 104.106 14.4672 104.644 13.8989C105.197 13.3306 105.473 12.5549 105.473 11.5718ZM116.203 0.950399V18H112.263V0.950399H116.203Z" fill="#43A69B"/>
</svg>
