<svg width="4719" height="803" viewBox="0 0 4719 803" fill="none" xmlns="http://www.w3.org/2000/svg">
<path d="M226.357 484.8C197.157 484.8 171.157 479.8 148.357 469.8C125.557 459.8 107.557 446.2 94.357 429C81.157 411.4 73.757 391.8 72.157 370.2H173.557C174.757 381.8 180.157 391.2 189.757 398.4C199.357 405.6 211.157 409.2 225.157 409.2C237.957 409.2 247.757 406.8 254.557 402C261.757 396.8 265.357 390.2 265.357 382.2C265.357 372.6 260.357 365.6 250.357 361.2C240.357 356.4 224.157 351.2 201.757 345.6C177.757 340 157.757 334.2 141.757 328.2C125.757 321.8 111.957 312 100.357 298.8C88.757 285.2 82.957 267 82.957 244.2C82.957 225 88.157 207.6 98.557 192C109.357 176 124.957 163.4 145.357 154.2C166.157 145 190.757 140.4 219.157 140.4C261.157 140.4 294.157 150.8 318.157 171.6C342.557 192.4 356.557 220 360.157 254.4H265.357C263.757 242.8 258.557 233.6 249.757 226.8C241.357 220 230.157 216.6 216.157 216.6C204.157 216.6 194.957 219 188.557 223.8C182.157 228.2 178.957 234.4 178.957 242.4C178.957 252 183.957 259.2 193.957 264C204.357 268.8 220.357 273.6 241.957 278.4C266.757 284.8 286.957 291.2 302.557 297.6C318.157 303.6 331.757 313.6 343.357 327.6C355.357 341.2 361.557 359.6 361.957 382.8C361.957 402.4 356.357 420 345.157 435.6C334.357 450.8 318.557 462.8 297.757 471.6C277.357 480.4 253.557 484.8 226.357 484.8ZM404.327 312C404.327 277.6 410.727 247.4 423.527 221.4C436.727 195.4 454.527 175.4 476.927 161.4C499.327 147.4 524.327 140.4 551.927 140.4C575.527 140.4 596.127 145.2 613.727 154.8C631.727 164.4 645.527 177 655.127 192.6V145.2H757.727V480H655.127V432.6C645.127 448.2 631.127 460.8 613.127 470.4C595.527 480 574.927 484.8 551.327 484.8C524.127 484.8 499.327 477.8 476.927 463.8C454.527 449.4 436.727 429.2 423.527 403.2C410.727 376.8 404.327 346.4 404.327 312ZM655.127 312.6C655.127 287 647.927 266.8 633.527 252C619.527 237.2 602.327 229.8 581.927 229.8C561.527 229.8 544.127 237.2 529.727 252C515.727 266.4 508.727 286.4 508.727 312C508.727 337.6 515.727 358 529.727 373.2C544.127 388 561.527 395.4 581.927 395.4C602.327 395.4 619.527 388 633.527 373.2C647.927 358.4 655.127 338.2 655.127 312.6ZM968.154 484.8C938.954 484.8 912.954 479.8 890.154 469.8C867.354 459.8 849.354 446.2 836.154 429C822.954 411.4 815.554 391.8 813.954 370.2H915.354C916.554 381.8 921.954 391.2 931.554 398.4C941.154 405.6 952.954 409.2 966.954 409.2C979.754 409.2 989.554 406.8 996.354 402C1003.55 396.8 1007.15 390.2 1007.15 382.2C1007.15 372.6 1002.15 365.6 992.154 361.2C982.154 356.4 965.954 351.2 943.554 345.6C919.554 340 899.554 334.2 883.554 328.2C867.554 321.8 853.754 312 842.154 298.8C830.554 285.2 824.754 267 824.754 244.2C824.754 225 829.954 207.6 840.354 192C851.154 176 866.754 163.4 887.154 154.2C907.954 145 932.554 140.4 960.954 140.4C1002.95 140.4 1035.95 150.8 1059.95 171.6C1084.35 192.4 1098.35 220 1101.95 254.4H1007.15C1005.55 242.8 1000.35 233.6 991.554 226.8C983.154 220 971.954 216.6 957.954 216.6C945.954 216.6 936.754 219 930.354 223.8C923.954 228.2 920.754 234.4 920.754 242.4C920.754 252 925.754 259.2 935.754 264C946.154 268.8 962.154 273.6 983.754 278.4C1008.55 284.8 1028.75 291.2 1044.35 297.6C1059.95 303.6 1073.55 313.6 1085.15 327.6C1097.15 341.2 1103.35 359.6 1103.75 382.8C1103.75 402.4 1098.15 420 1086.95 435.6C1076.15 450.8 1060.35 462.8 1039.55 471.6C1019.15 480.4 995.354 484.8 968.154 484.8ZM1353.12 393V480H1300.92C1263.72 480 1234.72 471 1213.92 453C1193.12 434.6 1182.72 404.8 1182.72 363.6V230.4H1141.92V145.2H1182.72V63.6H1285.32V145.2H1352.52V230.4H1285.32V364.8C1285.32 374.8 1287.72 382 1292.52 386.4C1297.32 390.8 1305.32 393 1316.52 393H1353.12ZM1562.67 484.8C1529.87 484.8 1500.27 477.8 1473.87 463.8C1447.87 449.8 1427.27 429.8 1412.07 403.8C1397.27 377.8 1389.87 347.4 1389.87 312.6C1389.87 278.2 1397.47 248 1412.67 222C1427.87 195.6 1448.67 175.4 1475.07 161.4C1501.47 147.4 1531.07 140.4 1563.87 140.4C1596.67 140.4 1626.27 147.4 1652.67 161.4C1679.07 175.4 1699.87 195.6 1715.07 222C1730.27 248 1737.87 278.2 1737.87 312.6C1737.87 347 1730.07 377.4 1714.47 403.8C1699.27 429.8 1678.27 449.8 1651.47 463.8C1625.07 477.8 1595.47 484.8 1562.67 484.8ZM1562.67 396C1582.27 396 1598.87 388.8 1612.47 374.4C1626.47 360 1633.47 339.4 1633.47 312.6C1633.47 285.8 1626.67 265.2 1613.07 250.8C1599.87 236.4 1583.47 229.2 1563.87 229.2C1543.87 229.2 1527.27 236.4 1514.07 250.8C1500.87 264.8 1494.27 285.4 1494.27 312.6C1494.27 339.4 1500.67 360 1513.47 374.4C1526.67 388.8 1543.07 396 1562.67 396ZM3201.44 484.8C3183.44 484.8 3168.64 479.6 3157.04 469.2C3145.84 458.4 3140.24 445.2 3140.24 429.6C3140.24 413.6 3145.84 400.2 3157.04 389.4C3168.64 378.6 3183.44 373.2 3201.44 373.2C3219.04 373.2 3233.44 378.6 3244.64 389.4C3256.24 400.2 3262.04 413.6 3262.04 429.6C3262.04 445.2 3256.24 458.4 3244.64 469.2C3233.44 479.6 3219.04 484.8 3201.44 484.8ZM3302.37 312.6C3302.37 277.8 3309.37 247.4 3323.37 221.4C3337.77 195.4 3357.57 175.4 3382.77 161.4C3408.37 147.4 3437.57 140.4 3470.37 140.4C3512.37 140.4 3547.37 151.4 3575.37 173.4C3603.77 195.4 3622.37 226.4 3631.17 266.4H3521.97C3512.77 240.8 3494.97 228 3468.57 228C3449.77 228 3434.77 235.4 3423.57 250.2C3412.37 264.6 3406.77 285.4 3406.77 312.6C3406.77 339.8 3412.37 360.8 3423.57 375.6C3434.77 390 3449.77 397.2 3468.57 397.2C3494.97 397.2 3512.77 384.4 3521.97 358.8H3631.17C3622.37 398 3603.77 428.8 3575.37 451.2C3546.97 473.6 3511.97 484.8 3470.37 484.8C3437.57 484.8 3408.37 477.8 3382.77 463.8C3357.57 449.8 3337.77 429.8 3323.37 403.8C3309.37 377.8 3302.37 347.4 3302.37 312.6ZM3838.46 484.8C3805.66 484.8 3776.06 477.8 3749.66 463.8C3723.66 449.8 3703.06 429.8 3687.86 403.8C3673.06 377.8 3665.66 347.4 3665.66 312.6C3665.66 278.2 3673.26 248 3688.46 222C3703.66 195.6 3724.46 175.4 3750.86 161.4C3777.26 147.4 3806.86 140.4 3839.66 140.4C3872.46 140.4 3902.06 147.4 3928.46 161.4C3954.86 175.4 3975.66 195.6 3990.86 222C4006.06 248 4013.66 278.2 4013.66 312.6C4013.66 347 4005.86 377.4 3990.26 403.8C3975.06 429.8 3954.06 449.8 3927.26 463.8C3900.86 477.8 3871.26 484.8 3838.46 484.8ZM3838.46 396C3858.06 396 3874.66 388.8 3888.26 374.4C3902.26 360 3909.26 339.4 3909.26 312.6C3909.26 285.8 3902.46 265.2 3888.86 250.8C3875.66 236.4 3859.26 229.2 3839.66 229.2C3819.66 229.2 3803.06 236.4 3789.86 250.8C3776.66 264.8 3770.06 285.4 3770.06 312.6C3770.06 339.4 3776.46 360 3789.26 374.4C3802.46 388.8 3818.86 396 3838.46 396ZM4495.29 141.6C4536.89 141.6 4569.89 154.2 4594.29 179.4C4619.09 204.6 4631.49 239.6 4631.49 284.4V480H4529.49V298.2C4529.49 276.6 4523.69 260 4512.09 248.4C4500.89 236.4 4485.29 230.4 4465.29 230.4C4445.29 230.4 4429.49 236.4 4417.89 248.4C4406.69 260 4401.09 276.6 4401.09 298.2V480H4299.09V298.2C4299.09 276.6 4293.29 260 4281.69 248.4C4270.49 236.4 4254.89 230.4 4234.89 230.4C4214.89 230.4 4199.09 236.4 4187.49 248.4C4176.29 260 4170.69 276.6 4170.69 298.2V480H4068.09V145.2H4170.69V187.2C4181.09 173.2 4194.69 162.2 4211.49 154.2C4228.29 145.8 4247.29 141.6 4268.49 141.6C4293.69 141.6 4316.09 147 4335.69 157.8C4355.69 168.6 4371.29 184 4382.49 204C4394.09 185.6 4409.89 170.6 4429.89 159C4449.89 147.4 4471.69 141.6 4495.29 141.6Z" fill="#613F99"/>
<path d="M1771.91 312C1771.91 277.6 1778.31 247.4 1791.11 221.4C1804.31 195.4 1822.11 175.4 1844.51 161.4C1866.91 147.4 1891.91 140.4 1919.51 140.4C1941.51 140.4 1961.51 145 1979.51 154.2C1997.91 163.4 2012.31 175.8 2022.71 191.4V36H2125.31V480H2022.71V432C2013.11 448 1999.31 460.8 1981.31 470.4C1963.71 480 1943.11 484.8 1919.51 484.8C1891.91 484.8 1866.91 477.8 1844.51 463.8C1822.11 449.4 1804.31 429.2 1791.11 403.2C1778.31 376.8 1771.91 346.4 1771.91 312ZM2022.71 312.6C2022.71 287 2015.51 266.8 2001.11 252C1987.11 237.2 1969.91 229.8 1949.51 229.8C1929.11 229.8 1911.71 237.2 1897.31 252C1883.31 266.4 1876.31 286.4 1876.31 312C1876.31 337.6 1883.31 358 1897.31 373.2C1911.71 388 1929.11 395.4 1949.51 395.4C1969.91 395.4 1987.11 388 2001.11 373.2C2015.51 358.4 2022.71 338.2 2022.71 312.6ZM2515.13 307.2C2515.13 316.8 2514.53 326.8 2513.33 337.2H2281.13C2282.73 358 2289.33 374 2300.93 385.2C2312.93 396 2327.53 401.4 2344.73 401.4C2370.33 401.4 2388.13 390.6 2398.13 369H2507.33C2501.73 391 2491.53 410.8 2476.73 428.4C2462.33 446 2444.13 459.8 2422.13 469.8C2400.13 479.8 2375.53 484.8 2348.33 484.8C2315.53 484.8 2286.33 477.8 2260.73 463.8C2235.13 449.8 2215.13 429.8 2200.73 403.8C2186.33 377.8 2179.13 347.4 2179.13 312.6C2179.13 277.8 2186.13 247.4 2200.13 221.4C2214.53 195.4 2234.53 175.4 2260.13 161.4C2285.73 147.4 2315.13 140.4 2348.33 140.4C2380.73 140.4 2409.53 147.2 2434.73 160.8C2459.93 174.4 2479.53 193.8 2493.53 219C2507.93 244.2 2515.13 273.6 2515.13 307.2ZM2410.13 280.2C2410.13 262.6 2404.13 248.6 2392.13 238.2C2380.13 227.8 2365.13 222.6 2347.13 222.6C2329.93 222.6 2315.33 227.6 2303.33 237.6C2291.73 247.6 2284.53 261.8 2281.73 280.2H2410.13ZM2548.86 312C2548.86 277.6 2555.26 247.4 2568.06 221.4C2581.26 195.4 2599.06 175.4 2621.46 161.4C2643.86 147.4 2668.86 140.4 2696.46 140.4C2720.06 140.4 2740.66 145.2 2758.26 154.8C2776.26 164.4 2790.06 177 2799.66 192.6V145.2H2902.26V480H2799.66V432.6C2789.66 448.2 2775.66 460.8 2757.66 470.4C2740.06 480 2719.46 484.8 2695.86 484.8C2668.66 484.8 2643.86 477.8 2621.46 463.8C2599.06 449.4 2581.26 429.2 2568.06 403.2C2555.26 376.8 2548.86 346.4 2548.86 312ZM2799.66 312.6C2799.66 287 2792.46 266.8 2778.06 252C2764.06 237.2 2746.86 229.8 2726.46 229.8C2706.06 229.8 2688.66 237.2 2674.26 252C2660.26 266.4 2653.26 286.4 2653.26 312C2653.26 337.6 2660.26 358 2674.26 373.2C2688.66 388 2706.06 395.4 2726.46 395.4C2746.86 395.4 2764.06 388 2778.06 373.2C2792.46 358.4 2799.66 338.2 2799.66 312.6ZM3079.09 36V480H2976.49V36H3079.09Z" fill="#3DA89F"/>
<path d="M1898.69 639.48C1908.13 641.491 1915.71 646.208 1921.43 653.632C1927.15 660.901 1930.01 669.253 1930.01 678.688C1930.01 692.299 1925.22 703.125 1915.63 711.168C1906.2 719.056 1892.97 723 1875.96 723H1800.09V560.136H1873.41C1889.96 560.136 1902.87 563.925 1912.15 571.504C1921.59 579.083 1926.3 589.368 1926.3 602.36C1926.3 611.949 1923.75 619.915 1918.65 626.256C1913.7 632.597 1907.05 637.005 1898.69 639.48ZM1839.77 626.024H1865.75C1872.25 626.024 1877.2 624.632 1880.6 621.848C1884.16 618.909 1885.93 614.656 1885.93 609.088C1885.93 603.52 1884.16 599.267 1880.6 596.328C1877.2 593.389 1872.25 591.92 1865.75 591.92H1839.77V626.024ZM1869 690.984C1875.65 690.984 1880.75 689.515 1884.31 686.576C1888.02 683.483 1889.88 679.075 1889.88 673.352C1889.88 667.629 1887.95 663.144 1884.08 659.896C1880.37 656.648 1875.19 655.024 1868.53 655.024H1839.77V690.984H1869ZM2075.06 656.184C2075.06 659.896 2074.82 663.763 2074.36 667.784H1984.58C1985.2 675.827 1987.75 682.013 1992.23 686.344C1996.87 690.52 2002.52 692.608 2009.17 692.608C2019.07 692.608 2025.95 688.432 2029.82 680.08H2072.04C2069.88 688.587 2065.93 696.243 2060.21 703.048C2054.64 709.853 2047.6 715.189 2039.1 719.056C2030.59 722.923 2021.08 724.856 2010.56 724.856C1997.88 724.856 1986.59 722.149 1976.69 716.736C1966.79 711.323 1959.06 703.589 1953.49 693.536C1947.92 683.483 1945.14 671.728 1945.14 658.272C1945.14 644.816 1947.84 633.061 1953.26 623.008C1958.82 612.955 1966.56 605.221 1976.46 599.808C1986.36 594.395 1997.72 591.688 2010.56 591.688C2023.09 591.688 2034.22 594.317 2043.97 599.576C2053.71 604.835 2061.29 612.336 2066.7 622.08C2072.27 631.824 2075.06 643.192 2075.06 656.184ZM2034.46 645.744C2034.46 638.939 2032.14 633.525 2027.5 629.504C2022.86 625.483 2017.06 623.472 2010.1 623.472C2003.45 623.472 1997.8 625.405 1993.16 629.272C1988.68 633.139 1985.89 638.629 1984.81 645.744H2034.46ZM2253.26 611.64C2250.32 606.227 2246.07 602.128 2240.5 599.344C2235.09 596.405 2228.67 594.936 2221.25 594.936C2208.41 594.936 2198.12 599.189 2190.39 607.696C2182.66 616.048 2178.79 627.261 2178.79 641.336C2178.79 656.339 2182.81 668.093 2190.85 676.6C2199.05 684.952 2210.26 689.128 2224.49 689.128C2234.24 689.128 2242.43 686.653 2249.09 681.704C2255.89 676.755 2260.84 669.64 2263.93 660.36H2213.59V631.128H2299.89V668.016C2296.95 677.915 2291.93 687.117 2284.81 695.624C2277.85 704.131 2268.96 711.013 2258.13 716.272C2247.31 721.531 2235.09 724.16 2221.48 724.16C2205.39 724.16 2191.01 720.68 2178.33 713.72C2165.8 706.605 2155.98 696.784 2148.86 684.256C2141.9 671.728 2138.42 657.421 2138.42 641.336C2138.42 625.251 2141.9 610.944 2148.86 598.416C2155.98 585.733 2165.8 575.912 2178.33 568.952C2190.85 561.837 2205.16 558.28 2221.25 558.28C2240.73 558.28 2257.13 562.997 2270.43 572.432C2283.89 581.867 2292.78 594.936 2297.11 611.64H2253.26ZM2443.9 656.184C2443.9 659.896 2443.67 663.763 2443.2 667.784H2353.42C2354.04 675.827 2356.59 682.013 2361.08 686.344C2365.72 690.52 2371.36 692.608 2378.01 692.608C2387.91 692.608 2394.79 688.432 2398.66 680.08H2440.88C2438.72 688.587 2434.78 696.243 2429.05 703.048C2423.48 709.853 2416.45 715.189 2407.94 719.056C2399.43 722.923 2389.92 724.856 2379.4 724.856C2366.72 724.856 2355.43 722.149 2345.53 716.736C2335.63 711.323 2327.9 703.589 2322.33 693.536C2316.76 683.483 2313.98 671.728 2313.98 658.272C2313.98 644.816 2316.69 633.061 2322.1 623.008C2327.67 612.955 2335.4 605.221 2345.3 599.808C2355.2 594.395 2366.57 591.688 2379.4 591.688C2391.93 591.688 2403.07 594.317 2412.81 599.576C2422.56 604.835 2430.14 612.336 2435.55 622.08C2441.12 631.824 2443.9 643.192 2443.9 656.184ZM2403.3 645.744C2403.3 638.939 2400.98 633.525 2396.34 629.504C2391.7 625.483 2385.9 623.472 2378.94 623.472C2372.29 623.472 2366.64 625.405 2362 629.272C2357.52 633.139 2354.74 638.629 2353.65 645.744H2403.3ZM2543.71 592.152C2558.87 592.152 2570.93 597.101 2579.9 607C2589.03 616.744 2593.59 630.2 2593.59 647.368V723H2554.15V652.704C2554.15 644.043 2551.91 637.315 2547.42 632.52C2542.94 627.725 2536.9 625.328 2529.33 625.328C2521.75 625.328 2515.71 627.725 2511.23 632.52C2506.74 637.315 2504.5 644.043 2504.5 652.704V723H2464.83V593.544H2504.5V610.712C2508.52 604.989 2513.94 600.504 2520.74 597.256C2527.55 593.853 2535.2 592.152 2543.71 592.152ZM2748.99 593.544V723H2709.32V705.368C2705.3 711.091 2699.81 715.731 2692.85 719.288C2686.04 722.691 2678.46 724.392 2670.11 724.392C2660.21 724.392 2651.47 722.227 2643.89 717.896C2636.31 713.411 2630.44 706.992 2626.26 698.64C2622.09 690.288 2620 680.467 2620 669.176V593.544H2659.44V663.84C2659.44 672.501 2661.68 679.229 2666.17 684.024C2670.65 688.819 2676.68 691.216 2684.26 691.216C2691.99 691.216 2698.1 688.819 2702.59 684.024C2707.07 679.229 2709.32 672.501 2709.32 663.84V593.544H2748.99ZM2797.44 580.088C2790.48 580.088 2784.75 578.077 2780.27 574.056C2775.94 569.88 2773.77 564.776 2773.77 558.744C2773.77 552.557 2775.94 547.453 2780.27 543.432C2784.75 539.256 2790.48 537.168 2797.44 537.168C2804.24 537.168 2809.81 539.256 2814.14 543.432C2818.63 547.453 2820.87 552.557 2820.87 558.744C2820.87 564.776 2818.63 569.88 2814.14 574.056C2809.81 578.077 2804.24 580.088 2797.44 580.088ZM2817.16 593.544V723H2777.49V593.544H2817.16ZM2924.79 592.152C2939.94 592.152 2952.01 597.101 2960.98 607C2970.1 616.744 2974.67 630.2 2974.67 647.368V723H2935.23V652.704C2935.23 644.043 2932.98 637.315 2928.5 632.52C2924.01 627.725 2917.98 625.328 2910.4 625.328C2902.82 625.328 2896.79 627.725 2892.31 632.52C2887.82 637.315 2885.58 644.043 2885.58 652.704V723H2845.91V593.544H2885.58V610.712C2889.6 604.989 2895.01 600.504 2901.82 597.256C2908.62 593.853 2916.28 592.152 2924.79 592.152ZM3124.27 656.184C3124.27 659.896 3124.04 663.763 3123.57 667.784H3033.79C3034.41 675.827 3036.96 682.013 3041.44 686.344C3046.08 690.52 3051.73 692.608 3058.38 692.608C3068.28 692.608 3075.16 688.432 3079.03 680.08H3121.25C3119.09 688.587 3115.14 696.243 3109.42 703.048C3103.85 709.853 3096.81 715.189 3088.31 719.056C3079.8 722.923 3070.29 724.856 3059.77 724.856C3047.09 724.856 3035.8 722.149 3025.9 716.736C3016 711.323 3008.27 703.589 3002.7 693.536C2997.13 683.483 2994.35 671.728 2994.35 658.272C2994.35 644.816 2997.05 633.061 3002.47 623.008C3008.04 612.955 3015.77 605.221 3025.67 599.808C3035.57 594.395 3046.93 591.688 3059.77 591.688C3072.3 591.688 3083.44 594.317 3093.18 599.576C3102.92 604.835 3110.5 612.336 3115.92 622.08C3121.48 631.824 3124.27 643.192 3124.27 656.184ZM3083.67 645.744C3083.67 638.939 3081.35 633.525 3076.71 629.504C3072.07 625.483 3066.27 623.472 3059.31 623.472C3052.66 623.472 3047.01 625.405 3042.37 629.272C3037.89 633.139 3035.1 638.629 3034.02 645.744H3083.67ZM3163.76 724.856C3156.8 724.856 3151.07 722.845 3146.59 718.824C3142.26 714.648 3140.09 709.544 3140.09 703.512C3140.09 697.325 3142.26 692.144 3146.59 687.968C3151.07 683.792 3156.8 681.704 3163.76 681.704C3170.56 681.704 3176.13 683.792 3180.46 687.968C3184.95 692.144 3187.19 697.325 3187.19 703.512C3187.19 709.544 3184.95 714.648 3180.46 718.824C3176.13 722.845 3170.56 724.856 3163.76 724.856Z" fill="#3DA89F"/>
</svg>
