<svg width="761" height="433" viewBox="0 0 761 433" fill="none" xmlns="http://www.w3.org/2000/svg">
<path d="M165.061 432.2C134.261 432.2 106.661 427.2 82.2609 417.2C57.8609 407.2 38.2609 392.4 23.4609 372.8C9.06094 353.2 1.46094 329.6 0.660939 302H109.861C111.461 317.6 116.861 329.6 126.061 338C135.261 346 147.261 350 162.061 350C177.261 350 189.261 346.6 198.061 339.8C206.861 332.6 211.261 322.8 211.261 310.4C211.261 300 207.661 291.4 200.461 284.6C193.661 277.8 185.061 272.2 174.661 267.8C164.661 263.4 150.261 258.4 131.461 252.8C104.261 244.4 82.0609 236 64.8609 227.6C47.6609 219.2 32.8609 206.8 20.4609 190.4C8.06094 174 1.86094 152.6 1.86094 126.2C1.86094 87 16.0609 56.4 44.4609 34.4C72.8609 12 109.861 0.799993 155.461 0.799993C201.861 0.799993 239.261 12 267.661 34.4C296.061 56.4 311.261 87.2 313.261 126.8H202.261C201.461 113.2 196.461 102.6 187.261 95C178.061 87 166.261 83 151.861 83C139.461 83 129.461 86.4 121.861 93.2C114.261 99.6 110.461 109 110.461 121.4C110.461 135 116.861 145.6 129.661 153.2C142.461 160.8 162.461 169 189.661 177.8C216.861 187 238.861 195.8 255.661 204.2C272.861 212.6 287.661 224.8 300.061 240.8C312.461 256.8 318.661 277.4 318.661 302.6C318.661 326.6 312.461 348.4 300.061 368C288.061 387.6 270.461 403.2 247.261 414.8C224.061 426.4 196.661 432.2 165.061 432.2Z" fill="#613F99"/>
<path d="M539.602 6.79999C584.002 6.79999 622.802 15.6 656.002 33.2C689.202 50.8 714.802 75.6 732.802 107.6C751.202 139.2 760.402 175.8 760.402 217.4C760.402 258.6 751.202 295.2 732.802 327.2C714.802 359.2 689.002 384 655.402 401.6C622.202 419.2 583.602 428 539.602 428H381.802V6.79999H539.602ZM533.002 339.2C571.802 339.2 602.002 328.6 623.602 307.4C645.202 286.2 656.002 256.2 656.002 217.4C656.002 178.6 645.202 148.4 623.602 126.8C602.002 105.2 571.802 94.4 533.002 94.4H484.402V339.2H533.002Z" fill="#3DA89F"/>
</svg>
